# xmcd
#
# Track frame offsets:
#	150
#	20645
#	34935
#	58150
#	76577
#	103982
#	119907
#	134605
#	148490
#	166417
#	183930
#	203920
#	222020
#	251047
#	264847
#	284625
#
# Disc length: 3964 seconds
#
# Revision: 0
# Processed by: cddbd v1.5.2PL0 Copyright (c) Steve Scherf et al.
# Submitted via: EasyCDDAExtractor 16.0.8.1
#
DISCID=010f7a10
DTITLE=Dimension Latina - 25 Años De Historia Vol. 4
DYEAR=2000
DGENRE=Salsa
TTITLE0=Y Mi Negra Esta Cansa
TTITLE1=Julia
TTITLE2=Ven Morena
TTITLE3=Juancito Trucupey
TTITLE4=El Angel De Mi Guarda
TTITLE5=Don Casimiro
TTITLE6=Parampampam
TTITLE7=Dormir Contigo
TTITLE8=Taboga
TTITLE9=Sigue Tu Camino
TTITLE10=Consigueme Eso
TTITLE11=Arroz Con Manteca
TTITLE12=Chancunche N. 2
TTITLE13=Vuelta Y Vuelta
TTITLE14=Que Cosa Tan Linda
TTITLE15=Ya Tu Lo Veras
EXTD=
EXTT0=
EXTT1=
EXTT2=
EXTT3=
EXTT4=
EXTT5=
EXTT6=
EXTT7=
EXTT8=
EXTT9=
EXTT10=
EXTT11=
EXTT12=
EXTT13=
EXTT14=
EXTT15=
PLAYORDER=
